# xmcd
#
# Track frame offsets: 
#        150
#        24903
#        49701
#        70600
#        83378
#        101826
#        125955
#        155336
#        172280
#        192459
#        216437
#        230760
#
# Disc length: 3235 seconds
#
# Revision: 1
# Processed by: cddbd v1.5.2PL0 Copyright (c) Steve Scherf et al.
# Submitted via: ExactAudioCopy v0.99pb4
#
DISCID=a90ca10c
DTITLE=Kym - A Woman's Journey
DYEAR=2006
DGENRE=New Age
TTITLE0=Nothing Greater Than Love
TTITLE1=Angel Voices
TTITLE2=The Wise Old Man
TTITLE3=Connected
TTITLE4=I Thank You
TTITLE5=The Circle
TTITLE6=Here We Are
TTITLE7=A Little Mantra - OM
TTITLE8=Magical Child
TTITLE9=Patiently Waiting
TTITLE10=Fields of Corn
TTITLE11=Journeys End
EXTD=YEAR: 2006
EXTT0=
EXTT1=
EXTT2=
EXTT3=
EXTT4=
EXTT5=
EXTT6=
EXTT7=
EXTT8=
EXTT9=
EXTT10=
EXTT11=
PLAYORDER=
